# xmcd
# Track frame offsets:
# 150
# 12039
# 24794
# 40940
# 60631
# 72118
# 82389
# 97595
# 107929
# 127801
# 142269
# 163300
# 180025
# 197165
# 212543
# 232587
# 250628
# 263332
# 279286
#
# Disc length: 3930 seconds
# Revision: 0
# Processed by: cddbd v1.4PL0 Copyright (c) Steve Scherf et al.
# Submitted via: VisiTrax 2.9.5.180 - For more info visit www.synapsa.com
#
DISCID=eb0f5813
DTITLE=Various Country Artists - Country Love CD 2
DYEAR=2003
DGENRE=Country and Western
TTITLE0=Dolly Parton - Jolene
TTITLE1=Kenny Rogers - Ruby Don't Take Your Love To Town
TTITLE2=Ronan Keating - If Tomorrow Never Comes
TTITLE3=Manericks The - Dance The Night Away
TTITLE4=Johnny Cash - A Thing Called Love
TTITLE5=Kris Kristoffersonj - Help Me Make It Through the Night
TTITLE6=Don Gibson - I Recall A Gypsy Woman
TTITLE7=Everly Brothers The - All I Have To Do Is Dream
TTITLE8=Reba McEntire - Talking In Your Sleep
TTITLE9=Shelby Lynne - Leavin'
TTITLE10=Amy Grant and Vince Gill - House Of Love
TTITLE11=Trisha Yearwood - I Would've Loved You Anyway
TTITLE12=Allison Moorer - Send Down An Angel
TTITLE13=Tim McGraw - I Like It, I Love It
TTITLE14=Eric Heatherly - Swimming In Champagne
TTITLE15=Mark Wills - Wish You Were Here
TTITLE16=Buddy Holly - True Love Ways
TTITLE17=Rita Coolidge - We're All Alone
TTITLE18=Billy Bob Thornton - Angelina
EXTD=
EXTT0=
EXTT1=
EXTT2=
EXTT3=
EXTT4=
EXTT5=
EXTT6=
EXTT7=
EXTT8=
EXTT9=
EXTT10=
EXTT11=
EXTT12=
EXTT13=
EXTT14=
EXTT15=
EXTT16=
EXTT17=
EXTT18=
PLAYORDER=
